inDegrees=no
num_controls=7
num_derivatives=13
num_iterations=131
num_multipliers=7
num_parameters=0
num_slacks=7
num_states=26
objective=5.085474
objective_accelerations=0.711865
objective_balance=0.022279
objective_effort=0.232895
objective_height=4.065981
objective_ligament=0.052455
solver_duration=1497.189866
status=Solve_Succeeded
success=true
DataType=double
version=3
OpenSimVersion=4.4-2022-07-23-0e9fedc
endheader
time	/jointset/ground_pelvis/pelvis_tilt/value	/jointset/ground_pelvis/pelvis_tx/value	/jointset/ground_pelvis/pelvis_ty/value	/jointset/hip_l/hip_flexion_l/value	/jointset/hip_l/hip_adduction_l/value	/jointset/hip_l/hip_rotation_l/value	/jointset/back/lumbar_extension/value	/jointset/patellofemoral_l/patellar_flexion_l/value	/jointset/knee_l/knee_flexion_l/value	/jointset/knee_l/knee_adduction_l/value	/jointset/knee_l/knee_rotation_l/value	/jointset/ankle_l/ankle_angle_l/value	/jointset/subtalar_l/subtalar_angle_l/value	/jointset/ground_pelvis/pelvis_tilt/speed	/jointset/ground_pelvis/pelvis_tx/speed	/jointset/ground_pelvis/pelvis_ty/speed	/jointset/hip_l/hip_flexion_l/speed	/jointset/hip_l/hip_adduction_l/speed	/jointset/hip_l/hip_rotation_l/speed	/jointset/back/lumbar_extension/speed	/jointset/patellofemoral_l/patellar_flexion_l/speed	/jointset/knee_l/knee_flexion_l/speed	/jointset/knee_l/knee_adduction_l/speed	/jointset/knee_l/knee_rotation_l/speed	/jointset/ankle_l/ankle_angle_l/speed	/jointset/subtalar_l/subtalar_angle_l/speed	/forceset/tau_hip_flexion_l	/forceset/tau_hip_adduction_l	/forceset/tau_hip_rotation_l	/forceset/tau_knee_flexion_l	/forceset/tau_ankle_angle_l	/forceset/tau_subtalar_angle_l	/forceset/tau_lumbar_extension	lambda_cid13_p0	lambda_cid13_p1	lambda_cid13_p2	lambda_cid13_p3	lambda_cid13_p4	lambda_cid13_p5	lambda_cid14_p0	/jointset/ground_pelvis/pelvis_tilt/accel	/jointset/ground_pelvis/pelvis_tx/accel	/jointset/ground_pelvis/pelvis_ty/accel	/jointset/hip_l/hip_flexion_l/accel	/jointset/hip_l/hip_adduction_l/accel	/jointset/hip_l/hip_rotation_l/accel	/jointset/back/lumbar_extension/accel	/jointset/patellofemoral_l/patellar_flexion_l/accel	/jointset/knee_l/knee_flexion_l/accel	/jointset/knee_l/knee_adduction_l/accel	/jointset/knee_l/knee_rotation_l/accel	/jointset/ankle_l/ankle_angle_l/accel	/jointset/subtalar_l/subtalar_angle_l/accel	gamma_cid13_p0	gamma_cid13_p1	gamma_cid13_p2	gamma_cid13_p3	gamma_cid13_p4	gamma_cid13_p5	gamma_cid14_p0
1	-0.8456847288120359	-0.1662845947141076	0.5956893381288904	2.085035263398918	-0.3381400315724267	0.07124266918190147	-0.4363317538528198	1.108215830784988	1.108215830784994	-0.01625287018427049	-0.1745314784591879	0.000601703392599664	0.08208503530105501	-0.1672672263788816	0.01210591554297963	0.03476452121595127	0.009789129116300949	-0.009404323375441616	-0.05561276892808265	4.376365305234233e-06	-0.1640909584880058	-0.1640909584880065	-0.01377396205196248	5.880554156999644e-06	-0.01892803407073531	-0.01448920587370014	-0.3869922210507877	-0.007030949849622305	-0.004298704024425218	-0.1398952553500967	0.1245185208021193	0.01322614028324978	0.2847982223637094	9.158957234146255	-4.120932223378591	-3.30985690038752	-7.823164934937155	-549.8114839154691	-65.36510687639465	-1.269549873673985	3.150905403609459	0.7474221321451212	1.89081614860509	-7.855819287191526	-0.3212194961361726	-1.32249369158577	-0.02518638745066955	-4.06944220663854	-4.069442206638382	-0.5174999661511003	-0.02677050866875441	0.3442763499945005	-0.2091037478333556	-1.148302715293419e-08	-5.520829784306438e-08	-3.305866209762792e-09	-1.74555490537035e-09	-1.084061941581192e-08	3.583339326104099e-08	-1.483827289327302e-08
1.01	-0.8472008338497274	-0.1661263081245222	0.596131240488161	2.084741786078324	-0.3382492862908666	0.07062116179902683	-0.4363316571572131	1.106371452313518	1.106371452313523	-0.01641591309203325	-0.1745314069210266	0.0004293029748575405	0.08193044759727899	-0.1359333340484041	0.01955024627399562	0.05359905805052676	-0.06846607622287371	-0.01243889773490825	-0.06868687450138861	1.413056355732321e-05	-0.2047779845476227	-0.2047779845476216	-0.01883208114630515	7.144904809333196e-06	-0.01558492729992386	-0.01643018551669655	-0.3873289360322064	-0.006697772803523848	-0.004299530002890363	-0.1388198053411672	0.123492201239352	0.0133632143855295	0.2849262078394275	8.858051523393463	-4.167969312275108	-3.256448900165657	-7.720698952742623	-549.5222724379501	-65.26725122355164	-1.299807079485886	3.127695569307415	0.7427632346553309	1.8772356467349	-7.807596559663218	-0.2934078865197919	-1.299609264613829	0.01393149374182911	-4.067316517002285	-4.06731651700199	-0.4996036611951926	0.01338496874383047	0.3243918041177706	-0.1868608176976352	-1.099877977323254e-08	-6.621615937276314e-08	-9.378992295695881e-09	-9.393318952391325e-09	-1.454311529152848e-08	4.747082734183484e-08	-1.796734674604739e-08
1.02	-0.8484029870798196	-0.1658936132894114	0.5967609808549466	2.083666311623861	-0.3383886530490381	0.0698689653055793	-0.4363314878855695	1.104120406839175	1.104120406839177	-0.01662946434677982	-0.1745313607270232	0.0002893464175228173	0.08175639694804006	-0.1044768648563012	0.02698756464807188	0.07233212271909147	-0.1466102976573539	-0.01542673132110789	-0.08175059105112487	1.889157295985838e-05	-0.2454243590624083	-0.2454243590624062	-0.02387563144541394	8.117279276300548e-07	-0.01243926198938249	-0.01838179496628593	-0.3876656510135781	-0.006364595757324064	-0.004300355981635066	-0.1377443553322611	0.1224658816765951	0.01350028848791927	0.2850541933152031	8.553622009609031	-4.215850117437155	-3.201237556294664	-7.638254597203574	-549.3158167117439	-65.16474841107355	-1.337237731801334	3.175420775934482	0.7460196607572481	1.870521715402963	-7.833622506252699	-0.3118713414827857	-1.320415886871833	-0.02618502522088719	-4.061311897672249	-4.06131189767225	-0.5145862071043453	-0.02829001417558216	0.304788057940624	-0.2112297091519288	-1.027707718728767e-08	-7.767266096485636e-08	-2.035828350310709e-08	-1.699281795449006e-08	-1.770386401554278e-08	5.526442623682464e-08	-2.031922142254197e-08
1.03	-0.84929000338197	-0.1655865569952259	0.5975774670051838	2.081810120973342	-0.338557645362042	0.06898630985605429	-0.4363312956681187	1.101463187260048	1.101463187259825	-0.01689346566723687	-0.1745313752912137	0.0001798160558902639	0.08156278142396825	-0.07291226221916043	0.03442460802714738	0.0909404621231738	-0.2245905914581614	-0.01835935727280237	-0.09477695468111855	2.087316474376931e-05	-0.2860049213191871	-0.2860049213191851	-0.02891794350119604	-3.410443083881078e-06	-0.00950354252539393	-0.02033961113562823	-0.3875908922960631	-0.005971123156034115	-0.004286500860564983	-0.1366642313425966	0.1214292800277481	0.01368336234950448	0.2849456300729409	8.266459702121553	-4.286639182342745	-3.142480361592223	-7.573577307043789	-548.7930075090399	-65.08751159922696	-1.382135581529601	3.149096020398585	0.7426787880571178	1.852289081321373	-7.774651105187794	-0.2820851894606459	-1.293234203491863	0.01358793732748178	-4.054228526172488	-4.054228526172292	-0.4980735188661027	0.01355844252460841	0.2824487061782619	-0.1877846090615704	-9.552951589034186e-09	-8.913374051676994e-08	-3.138763761992117e-08	-2.45918244561304e-08	-2.085908470739685e-08	6.301880232379601e-08	-2.266316549519696e-08
1.04	-0.8498609504552054	-0.1652051038449345	0.5985792963551428	2.079175243727199	-0.3387555893280552	0.06797349324979492	-0.4363310439975164	1.098400602031052	1.09840060203058	-0.01720769407106404	-0.17453142272493	9.853985201083625e-05	0.08134964233055582	-0.04126301907021843	0.04186693586925069	0.1094007626636207	-0.3023476167866759	-0.0212170619224323	-0.1077828224082597	3.078219451315403e-05	-0.3264974890356482	-0.3264974890356445	-0.03392104811900856	-5.762170549688162e-06	-0.006788430439396455	-0.02228650883441631	-0.3875161335783561	-0.005577650554606282	-0.004272645739656822	-0.135584107352997	0.1203926783788833	0.01386643621122725	0.2848370668309206	7.975622571264749	-4.358317680074229	-3.081830106481247	-7.527590029610287	-548.3542029091378	-65.00744064019295	-1.434801091081273	3.192348878294625	0.7470765533629062	1.84091394267591	-7.788968811794203	-0.2968870810698979	-1.316316706301344	-0.02459953762397486	-4.04371298960869	-4.043712989608306	-0.5067447195104533	-0.0279159254664796	0.2606665823425914	-0.209046015041058	-8.319172354570606e-09	-1.015119891652316e-07	-4.840799258914574e-08	-3.274310879191865e-08	-2.331915654686714e-08	6.687497815309944e-08	-2.415752828946235e-08
1.05	-0.850114967774025	-0.1647491998728051	0.5997649125681915	2.075764042502514	-0.3389817519885188	0.06683087922115295	-0.4363307225867334	1.094933591696093	1.094933591695704	-0.01757193015487043	-0.1745314610421421	4.321949603255284e-05	0.08111704256322913	-0.009528220917791104	0.04931447694279596	0.1276902210500846	-0.379839998012186	-0.02400060470173832	-0.1207347522919296	3.117182713074733e-05	-0.3668849904376851	-0.3668849904376909	-0.03891932161922926	-1.885321081475707e-06	-0.004320952386692143	-0.02423176756151747	-0.3870610614723825	-0.005117692945499012	-0.004243290596847107	-0.134429304918064	0.119184045718447	0.01411590809107485	0.2845001003356266	7.650011086790082	-4.457060372807216	-3.01193521794836	-7.429621236396448	-547.5907706600459	-64.95732488044996	-1.495620395525455	3.165873660910853	0.7436773778262873	1.818117776272858	-7.721483998445861	-0.2668325424969946	-1.283868466831923	0.012008992858565	-4.033325447715639	-4.033325447717135	-0.4953718258087935	0.01453627628278858	0.2329851750077985	-0.1869879966837814	-7.069466443975463e-09	-1.139188993479603e-07	-6.561556633500811e-08	-4.091165181002401e-08	-2.575750498470043e-08	7.060933522435075e-08	-2.562534166877807e-08
1.06	-0.8500512714358999	-0.1642188035912447	0.6011324545630318	2.071579495221471	-0.3392352990100057	0.06555889842620261	-0.4363304671237351	1.09106329500067	1.091063295000363	-0.0179859496057725	-0.174531461233642	1.121327225953821e-05	0.08086504576960366	0.02227971232241081	0.05676539775543344	0.1457859190221172	-0.457016828058344	-0.02669393412649104	-0.1336561756728882	1.759262591664548e-05	-0.4071547611283111	-0.4071547611283282	-0.04387772154068578	1.862973562305382e-06	-0.002125604003052179	-0.0261659140941844	-0.3866059893663476	-0.004657735336346993	-0.004213935453980225	-0.1332745024831645	0.1179754130579978	0.01436537997096372	0.2841631338404124	7.320527385744339	-4.556749644286963	-2.940033396376545	-7.348863660517076	-546.9131476777326	-64.90682875310877	-1.564988506770414	3.206975895849384	0.7477525011814881	1.802161859789731	-7.725858575923898	-0.2788444101592766	-1.310215405759117	-0.02739330439021674	-4.020166847326446	-4.020166847326433	-0.498770003757646	-0.02794163643141709	0.2062406485299855	-0.2068235761541737	-6.036285027838324e-09	-1.250350804108023e-07	-8.784018804145255e-08	-4.659172425084256e-08	-2.853467245112646e-08	6.91582381121389e-08	-2.561307875859824e-08
